<svg xml:space="preserve" viewBox="0 0 100 100" y="0" x="0" xmlns="http://www.w3.org/2000/svg" id="Layer_1" version="1.1" preserveAspectRatio="xMidYMid" width="200" height="200" xmlns:xlink="http://www.w3.org/1999/xlink" style="margin-top:0px;margin-right:0px;margin-bottom:0px;margin-left:0px;display:block;shape-rendering:auto;background-position-x:0%;background-position-y:0%;background-size:auto;background-origin:padding-box;background-clip:border-box;background:scroll rgba(255, 255, 255, 0) none  repeat;width:200px;height:200px;;animation:none"><g class="ldl-scale" style="transform-origin:50px 50px;transform:matrix(0.8, 0, 0, 0.8, 0, 0);;animation:none"><g class="ldl-ani"><g class="ldl-layer"><g class="ldl-ani" style="transform-origin:50px 50px;transform:matrix(1.00333, 0, 0, 1.00333, 0, 0);animation-duration:1s;animation-timing-function:linear;animation-delay:-0.666667s;animation-iteration-count:infinite;animation-direction:normal;animation-fill-mode:forwards;animation-play-state:paused;animation-name:animate;animation-timeline:auto;animation-range-start:normal;animation-range-end:normal;transform-box:view-box;;animation:none"><path fill="#e15c64" d="M89.9 53.2c.1-1 .1-2.1.1-3.2s-.1-2.1-.1-3.2l-9.3-1.9c-.3-2-.8-3.9-1.5-5.7l7.1-6.3c-.9-1.9-2-3.8-3.2-5.5l-9 3c-1.3-1.5-2.7-2.9-4.2-4.2l3-9c-1.7-1.2-3.6-2.3-5.5-3.2l-6.4 7c-1.8-.7-3.8-1.2-5.7-1.5l-1.9-9.3c-1-.1-2.1-.1-3.2-.1s-2.1.1-3.2.1L45 19.5c-2 .3-3.9.8-5.7 1.5L33 13.9c-1.9.9-3.8 2-5.5 3.2l3 9c-1.5 1.3-2.9 2.7-4.2 4.2l-9-3c-1.2 1.7-2.3 3.6-3.2 5.5l7.1 6.3c-.7 1.8-1.2 3.8-1.5 5.7l-9.3 1.9c-.1 1-.1 2.1-.1 3.2s.1 2.1.1 3.2l9.3 1.9c.3 2 .8 3.9 1.5 5.7L14.1 67c.9 1.9 2 3.8 3.2 5.5l9-3c1.3 1.5 2.7 2.9 4.2 4.2l-3 9c1.7 1.2 3.6 2.3 5.5 3.2l6.3-7.1c1.8.7 3.8 1.2 5.7 1.5l1.9 9.3c1 .1 2.1.1 3.2.1s2.1-.1 3.2-.1l1.9-9.3c2-.3 3.9-.8 5.7-1.5l6.3 7.1c1.9-.9 3.8-2 5.5-3.2l-3-9c1.5-1.3 2.9-2.7 4.2-4.2l9 3c1.2-1.7 2.3-3.6 3.2-5.5L79 60.9c.7-1.8 1.2-3.8 1.5-5.7l9.4-2zM50 70c-11 0-20-9-20-20s9-20 20-20 20 9 20 20-9 20-20 20z" style="stroke-width:1px;fill:rgb(3, 137, 255);;animation:none"></path></g></g>
<g class="ldl-layer"><g class="ldl-ani" style="transform-origin:50px 50px;transform:matrix(0.935119, 0, 0, 0.935119, 0, 0);animation-duration:1s;animation-timing-function:linear;animation-delay:-0.833333s;animation-iteration-count:infinite;animation-direction:normal;animation-fill-mode:forwards;animation-play-state:paused;animation-name:animate;animation-timeline:auto;animation-range-start:normal;animation-range-end:normal;transform-box:view-box;;animation:none"><path fill="#f47e5f" d="M77.5 44.9c-.1-.7-.3-1.4-.5-2.2s-.4-1.4-.7-2.1l-6.6.4c-.6-1.3-1.3-2.5-2.1-3.6l3.6-5.6c-1-1.1-2-2.2-3.1-3.1l-5.6 3.6c-1.1-.8-2.3-1.5-3.6-2.1l.4-6.6c-1.4-.5-2.8-.9-4.3-1.2l-3 5.9c-1.4-.1-2.7-.1-4.1 0l-3-5.9c-.7.1-1.4.3-2.2.5-.7.2-1.4.4-2.1.7l.4 6.6c-1.3.6-2.5 1.3-3.6 2.1l-5.6-3.6c-1.1 1-2.2 2-3.1 3.1l3.6 5.6c-.8 1.1-1.5 2.3-2.1 3.6l-6.6-.4c-.5 1.4-.9 2.8-1.2 4.3l5.9 3c-.1 1.4-.1 2.7 0 4.1l-5.9 3c.1.7.3 1.4.5 2.2.2.7.4 1.4.7 2.1l6.6-.4c.6 1.3 1.3 2.5 2.1 3.6l-3.6 5.6c1 1.1 2 2.2 3.1 3.1l5.6-3.6c1.1.8 2.3 1.5 3.6 2.1l-.4 6.6c1.4.5 2.8.9 4.3 1.2l3-5.9c1.4.1 2.7.1 4.1 0l3 5.9c.7-.1 1.4-.3 2.2-.5s1.4-.4 2.1-.7l-.3-6.6c1.3-.6 2.5-1.3 3.6-2.1l5.6 3.6c1.1-1 2.2-2 3.1-3.1l-3.6-5.6c.8-1.1 1.5-2.3 2.1-3.6l6.6.4c.5-1.4.9-2.8 1.2-4.3l-5.9-3c.1-1.4.1-2.7 0-4.1l5.8-3zM53.6 63.5c-7.5 2-15.1-2.4-17.1-9.9-2-7.5 2.4-15.1 9.9-17.1s15.1 2.4 17.1 9.9c2 7.4-2.4 15.1-9.9 17.1z" style="stroke-width:1px;fill:rgb(13, 211, 255);;animation:none"></path></g></g>
<g class="ldl-layer"><g class="ldl-ani" style="transform-origin:50px 50px;transform:matrix(0.91, 0, 0, 0.91, 0, 0);animation-duration:1s;animation-timing-function:linear;animation-delay:-1s;animation-iteration-count:infinite;animation-direction:normal;animation-fill-mode:forwards;animation-play-state:paused;animation-name:animate;animation-timeline:auto;animation-range-start:normal;animation-range-end:normal;transform-box:view-box;;animation:none"><path fill="#f7b26a" d="M68.4 41.3c-.2-.5-.5-1-.7-1.4-.3-.5-.6-.9-.9-1.4L62.2 40c-.6-.8-1.4-1.5-2.1-2.1l1.5-4.6c-.9-.6-1.8-1.1-2.8-1.6l-3.2 3.6c-.9-.4-1.9-.6-2.9-.8l-1-4.7c-1.1-.1-2.1-.1-3.2 0l-1 4.7c-1 .2-2 .4-2.9.8l-3.2-3.6c-.5.2-1 .5-1.4.7-.5.3-.9.6-1.4.9l1.5 4.6c-.8.6-1.5 1.4-2.1 2.1l-4.6-1.5c-.6.9-1.1 1.8-1.6 2.8l3.6 3.2c-.4.9-.6 1.9-.8 2.9l-4.7 1c-.1 1.1-.1 2.1 0 3.2l4.7 1c.2 1 .4 2 .8 2.9l-3.6 3.2c.2.5.5 1 .7 1.4.3.5.6.9.9 1.4L38 60c.6.8 1.4 1.5 2.1 2.1l-1.5 4.6c.9.6 1.8 1.1 2.8 1.6l3.2-3.6c.9.4 1.9.6 2.9.8l1 4.7c1.1.1 2.1.1 3.2 0l1-4.7c1-.2 2-.4 2.9-.8l3.2 3.6c.5-.2 1-.5 1.4-.7.5-.3.9-.6 1.4-.9L60 62.2c.8-.6 1.5-1.4 2.1-2.1l4.6 1.5c.6-.9 1.1-1.8 1.6-2.8l-3.6-3.2c.4-.9.6-1.9.8-2.9l4.7-1c.1-1.1.1-2.1 0-3.2l-4.7-1c-.2-1-.4-2-.8-2.9l3.7-3.3zM55.1 58.8c-4.9 2.8-11.1 1.1-13.9-3.7-2.8-4.9-1.1-11.1 3.7-13.9s11.1-1.1 13.9 3.7c2.8 4.9 1.1 11.1-3.7 13.9z" style="stroke-width:1px;fill:rgb(28, 121, 192);;animation:none"></path></g></g>
<metadata xmlns:d="https://loading.io/stock/"></metadata></g></g>
<STYLE type="text/css">@keyframes animate { 0.00% {transform: translate(0.00px,0.00px) rotate(0.00deg) scale(0.91, 0.91) skew(0deg, 0.00deg) ;opacity: 1.00;}4.00% {transform: translate(0.00px,0.00px) rotate(0.00deg) scale(0.91, 0.91) ;}8.00% {animation-timing-function: cubic-bezier(0.69,0.60,0.35,0.27);transform: translate(0.00px,0.00px) rotate(0.00deg) scale(0.91, 0.91) ;}14.00% {transform: translate(0.00px,0.00px) rotate(0.00deg) scale(0.93, 0.93) ;}18.00% {transform: translate(0.00px,0.00px) rotate(0.00deg) scale(0.94, 0.94) ;}22.00% {animation-timing-function: cubic-bezier(0.67,0.66,0.34,0.33);transform: translate(0.00px,0.00px) rotate(0.00deg) scale(0.96, 0.96) ;}26.00% {transform: translate(0.00px,0.00px) rotate(0.00deg) scale(0.97, 0.97) ;}30.00% {transform: translate(0.00px,0.00px) rotate(0.00deg) scale(0.99, 0.99) ;}34.00% {animation-timing-function: cubic-bezier(0.65,0.71,0.32,0.38);transform: translate(0.00px,0.00px) rotate(0.00deg) scale(1.01, 1.01) ;}40.00% {animation-timing-function: cubic-bezier(0.64,0.74,0.31,0.41);transform: translate(0.00px,0.00px) rotate(0.00deg) scale(1.02, 1.02) ;}46.00% {animation-timing-function: cubic-bezier(0.60,0.91,0.23,0.63);transform: translate(0.00px,0.00px) rotate(0.00deg) scale(1.03, 1.03) ;}50.00% {transform: translate(0.00px,0.00px) rotate(0.00deg) scale(1.03, 1.03) ;}54.00% {transform: translate(0.00px,0.00px) rotate(0.00deg) scale(1.03, 1.03) ;}58.00% {animation-timing-function: cubic-bezier(0.69,0.60,0.35,0.27);transform: translate(0.00px,0.00px) rotate(0.00deg) scale(1.03, 1.03) ;}64.00% {transform: translate(0.00px,0.00px) rotate(0.00deg) scale(1.01, 1.01) ;}68.00% {transform: translate(0.00px,0.00px) rotate(0.00deg) scale(1.00, 1.00) ;}72.00% {animation-timing-function: cubic-bezier(0.67,0.66,0.34,0.33);transform: translate(0.00px,0.00px) rotate(0.00deg) scale(0.98, 0.98) ;}76.00% {animation-timing-function: cubic-bezier(0.66,0.68,0.33,0.35);transform: translate(0.00px,0.00px) rotate(0.00deg) scale(0.97, 0.97) ;}82.00% {animation-timing-function: cubic-bezier(0.65,0.71,0.32,0.38);transform: translate(0.00px,0.00px) rotate(0.00deg) scale(0.94, 0.94) ;}88.00% {animation-timing-function: cubic-bezier(0.65,0.73,0.31,0.40);transform: translate(0.00px,0.00px) rotate(0.00deg) scale(0.92, 0.92) ;}94.00% {animation-timing-function: cubic-bezier(0.63,0.80,0.28,0.48);transform: translate(0.00px,0.00px) rotate(0.00deg) scale(0.91, 0.91) ;}100.00% {animation-timing-function: cubic-bezier(0.63,0.80,0.28,0.48);transform: translate(0.00px,0.00px) rotate(0.00deg) scale(0.91, 0.91) ;} }</STYLE><!-- [ldio] generated by https://loading.io --></svg>